<!DOCTYPE svg PUBLIC "-//W3C//DTD SVG 1.1//EN" "http://www.w3.org/Graphics/SVG/1.1/DTD/svg11.dtd">
<!-- Uploaded to: SVG Repo, www.svgrepo.com, Transformed by: SVG Repo Mixer Tools -->
<svg width="800px" height="800px" viewBox="0 0 24.00 24.00" fill="none" xmlns="http://www.w3.org/2000/svg" stroke="#f99e1a" stroke-width="1.2">

<g id="SVGRepo_bgCarrier" stroke-width="0"/>

<g id="SVGRepo_tracerCarrier" stroke-linecap="round" stroke-linejoin="round" stroke="#CCCCCC" stroke-width="0.096"/>

<g id="SVGRepo_iconCarrier"> <path fill-rule="evenodd" clip-rule="evenodd" d="M22 12C22 17.5228 17.5228 22 12 22C6.47715 22 2 17.5228 2 12C2 6.47715 6.47715 2 12 2C17.5228 2 22 6.47715 22 12ZM11.9091 6L7 8.18182V11.4545C7 14.4818 9.09455 17.3127 11.9091 18C14.7236 17.3127 16.8182 14.4818 16.8182 11.4545V8.18182L11.9091 6ZM15.7273 11.4545C15.7273 13.92 14.1018 16.1945 11.9091 16.8709C9.71636 16.1945 8.0909 13.92 8.0909 11.4545V8.8909L11.9091 7.19454L15.7273 8.8909V11.4545Z" fill="#43484c" /> </g>

</svg>